<?xml version="1.0" encoding="utf-8"?>
<!-- Generator: Adobe Illustrator 16.0.0, SVG Export Plug-In . SVG Version: 6.00 Build 0)  -->
<!DOCTYPE svg PUBLIC "-//W3C//DTD SVG 1.1//EN" "http://www.w3.org/Graphics/SVG/1.1/DTD/svg11.dtd">
<svg version="1.1" xmlns="http://www.w3.org/2000/svg" xmlns:xlink="http://www.w3.org/1999/xlink" x="0px" y="0px" width="52px"
	 height="52px" viewBox="0 0 52 52" enable-background="new 0 0 52 52" xml:space="preserve">
<symbol  id="League_x5F_Silver_x5F_Small" viewBox="-26.05 -26.05 52.1 52.1">
	<g id="League_x5F_Silver_1_">
		<polygon opacity="0" fill="#A5A5A5" points="-18.01,10.32 0,20.72 18.01,10.32 18.01,-10.48 0,-20.88 -18.01,-10.48 		"/>
		<polygon opacity="0" fill="none" stroke="#231F20" stroke-width="0.104" stroke-miterlimit="10" points="26,-26 -26,-26 -26,26 
			26,26 		"/>
		<polygon fill="#666666" points="-14.04,-9.66 0,-17.76 14.04,-9.66 14.04,11.2 -14.04,11.2 		"/>
		<polyline fill="#8C8C8C" points="12.74,11.2 12.74,7.31 -12.74,7.31 -12.74,11.31 		"/>
		<polygon fill="#A5A5A5" points="-12.74,-13.52 0,-20.88 12.74,-13.52 12.74,7.31 -12.74,7.31 		"/>
		<polygon opacity="0.25" fill="#231F20" points="-12.74,4.11 -14.04,4.11 -14.04,5.23 -12.74,5.23 		"/>
		<polygon opacity="0.25" fill="#231F20" points="14.04,4.11 12.74,4.11 12.74,5.23 14.04,5.23 		"/>
		<polygon fill="#CCCCCC" points="12.94,-13.41 0,-20.88 -12.94,-13.41 0,-21.31 		"/>
		<path fill="#A5A5A5" d="M-12.74-13.52l4.52-2.76l-2.8,2.8v20.8h-1.72V-13.52z M11.02,7.31v-20.98l-3.07-2.78l4.79,2.93V7.31H11.02
			z"/>
		<polygon fill="#A5A5A5" points="-3.19,7.31 0,9.15 3.19,7.31 3.19,-19.04 0,-20.88 -3.19,-19.04 		"/>
		<path opacity="0.25" fill="#A5A5A5" d="M-11.02,7.1v4.1h-1.72V7.09 M12.74,7.09v4.11h-1.72V7.06"/>
		<g>
			<g>
				
					<line fill="none" stroke="#C8C8C8" stroke-width="2" stroke-linecap="round" stroke-linejoin="round" stroke-miterlimit="10" x1="15.77" y1="11.2" x2="-15.77" y2="11.2"/>
			</g>
			<g>
				
					<polygon fill="none" stroke="#C8C8C8" stroke-width="2" stroke-linecap="round" stroke-linejoin="round" stroke-miterlimit="10" points="
					-4.27,13.64 -6.58,16.94 -4.27,18.27 -1.95,16.94 				"/>
				
					<line fill="none" stroke="#C8C8C8" stroke-width="2" stroke-linecap="round" stroke-linejoin="round" stroke-miterlimit="10" x1="-4.27" y1="13.64" x2="-4.27" y2="11.68"/>
			</g>
			<g>
				
					<polygon fill="none" stroke="#C8C8C8" stroke-width="2" stroke-linecap="round" stroke-linejoin="round" stroke-miterlimit="10" points="
					4.14,13.64 1.82,16.94 4.14,18.27 6.45,16.94 				"/>
				
					<line fill="none" stroke="#C8C8C8" stroke-width="2" stroke-linecap="round" stroke-linejoin="round" stroke-miterlimit="10" x1="4.14" y1="13.64" x2="4.14" y2="11.68"/>
			</g>
		</g>
	</g>
</symbol>
<symbol  id="Position_x5F_1_x5F_Small_1_" viewBox="-26.05 -26.05 52.1 52.1">
	<g id="Position_x5F_1_2_">
		<polygon fill="#FFFFFF" points="-14.1,-10.83 0,-18.97 14.1,-10.83 14.1,-12.74 0,-20.88 -14.1,-12.74 		"/>
		<g opacity="0">
			<polygon fill="none" stroke="#FF0000" stroke-width="0.026" stroke-miterlimit="10" points="-18.01,10.32 0,20.72 18.01,10.32 
				18.01,-10.48 0,-20.88 -18.01,-10.48 			"/>
			<polygon fill="none" stroke="#FF0000" stroke-width="0.026" stroke-miterlimit="10" points="-14.77,-8.61 0,-0.08 14.77,-8.61 
				14.77,-8.61 0,-17.14 -14.77,-8.61 			"/>
		</g>
		<polygon opacity="0" fill="none" stroke="#231F20" stroke-width="0.104" stroke-miterlimit="10" points="26,-26 -26,-26 -26,26 
			26,26 		"/>
		<g>
			<polygon opacity="0.25" points="7.34,-16.54 7.34,3 0,3 -7.33,3 -7.33,-16.54 0,-20.78 			"/>
			<polygon points="8,-14.16 8,10.77 0,10.77 -8,10.77 -8,-14.16 0,-18.78 			"/>
		</g>
		<g>
			<polygon fill="#FFFFFF" points="-14.1,-7 0,-15.14 14.1,-7 14.1,-8.91 0,-17.05 -14.1,-8.91 			"/>
			<polygon fill="#231F20" points="7.46,-8.91 0,-4.6 -7.46,-8.91 -7.46,-7 0,-2.69 7.46,-7 			"/>
			<polygon fill="#FFFFFF" points="-14.1,-3.17 0,-11.31 14.1,-3.17 14.1,-5.08 0,-13.22 -14.1,-5.08 			"/>
		</g>
		<polygon fill="#FFFFFF" points="-0.1,6.08 1.39,1.48 6.22,1.48 2.31,-1.35 3.8,-5.94 -0.1,-3.11 -4,-5.94 -2.51,-1.35 -6.42,1.48 
			-1.59,1.48 		"/>
	</g>
</symbol>
<g id="Layer_1" display="none">
</g>
<g id="_x5B_HBE_x5D__-_Bg" display="none">
	<rect x="-286.05" y="-196.09" display="inline" fill="#3A3A3A" width="360.67" height="562.52"/>
</g>
<g id="_x5B_HBE_x5D__-_Struct" display="none">
	<g id="League_x5F_Bronze" display="inline">
	</g>
</g>
<g id="Bases">
	
		<use xlink:href="#League_x5F_Silver_x5F_Small"  width="52.1" height="52.1" id="XMLID_104_" x="-26.05" y="-26.05" transform="matrix(1 0 0 -1 26 26)" overflow="visible"/>
	<g id="League_x5F_Diamond_x5F_Small">
		<g id="League_x5F_Diamond">
		</g>
	</g>
</g>
<g id="Compound">
	<g id="Rank_x5F_Copper_x5F_4_x5F_Small_1_">
		<g id="Rank_x5F_Copper_x5F_4_2_">
		</g>
	</g>
	<g id="Rank_x5F_Copper_x5F_4_x5F_Small_2_">
		<g id="Rank_x5F_Copper_x5F_4_3_">
		</g>
	</g>
	<g id="Rank_x5F_Copper_x5F_4_5_">
		<g id="League_x5F_Copper">
		</g>
	</g>
	<g id="Rank_x5F_Copper_x5F_4_x5F_Small_4_">
		<g id="Rank_x5F_Copper_x5F_4_6_">
		</g>
	</g>
	<g id="Rank_x5F_Copper_x5F_4_x5F_Small_3_">
		<g id="Rank_x5F_Copper_x5F_4_4_">
		</g>
	</g>
	<g id="Rank_x5F_Copper_x5F_4_x5F_Small">
		<g id="Rank_x5F_Copper_x5F_4">
		</g>
	</g>
	
		<use xlink:href="#Position_x5F_1_x5F_Small_1_"  width="52.1" height="52.1" id="XMLID_103_" x="-26.05" y="-26.05" transform="matrix(1 0 0 -1 26 26.5703)" overflow="visible"/>
	<g id="Position_x5F_1_x5F_Small">
		<g id="Position_x5F_1_1_">
		</g>
	</g>
	<g id="Rank_x5F_Copper_x5F_3">
	</g>
	<g id="Rank_x5F_Copper_x5F_2">
	</g>
	<g id="Rank_x5F_Copper_x5F_1">
	</g>
	<g id="Rank_x5F_Bronze_x5F_4">
	</g>
	<g id="Rank_x5F_Bronze_x5F_3">
	</g>
	<g id="Rank_x5F_Bronze_x5F_2">
	</g>
	<g id="Rank_x5F_Bronze_x5F_1">
	</g>
	<g id="Rank_x5F_Silver_x5F_4">
	</g>
	<g id="Rank_x5F_Silver_x5F_3">
	</g>
	<g id="Rank_x5F_Silver_x5F_2">
	</g>
	<g id="Rank_x5F_Silver_x5F_1">
	</g>
	<g id="Rank_x5F_Gold_x5F_4">
	</g>
	<g id="Rank_x5F_Gold_x5F_3">
	</g>
	<g id="Rank_x5F_Gold_x5F_2">
	</g>
	<g id="Rank_x5F_Gold_x5F_1">
	</g>
	<g id="Rank_x5F_Platinum_x5F_4">
	</g>
	<g id="Rank_x5F_Platinum_x5F_3">
	</g>
	<g id="Rank_x5F_Platinum_x5F_2">
	</g>
	<g id="Rank_x5F_Platinum_x5F_1">
		<g id="Position_x5F_1">
		</g>
	</g>
</g>
</svg>
